Coordinates
version=1
nRows=14
nColumns=40
inDegrees=yes

Units are S.I. units (second, meters, Newtons, ...)
Angles are in degrees.

endheader
time	pelvis_tilt	pelvis_list	pelvis_rotation	pelvis_tx	pelvis_ty	pelvis_tz	hip_flexion_r	hip_adduction_r	hip_rotation_r	knee_angle_r	knee_angle_r_beta	ankle_angle_r	subtalar_angle_r	mtp_angle_r	hip_flexion_l	hip_adduction_l	hip_rotation_l	knee_angle_l	knee_angle_l_beta	ankle_angle_l	subtalar_angle_l	mtp_angle_l	lumbar_extension	lumbar_bending	lumbar_rotation	arm_flex_r	arm_add_r	arm_rot_r	elbow_flex_r	pro_sup_r	wrist_flex_r	wrist_dev_r	arm_flex_l	arm_add_l	arm_rot_l	elbow_flex_l	pro_sup_l	wrist_flex_l	wrist_dev_l
     24.01250000	     -5.15310503	     -4.41224627	     -0.25875592	      0.95529013	      0.93313946	      0.42540061	     38.84194758	     -4.53400489	     -8.01889729	     59.20979505	     59.20979505	      0.61505822	    -12.58730914	     -0.62346671	     11.80259692	     -4.18640221	    -10.08242781	     16.82682616	     16.82682616	     12.71783866	     -7.70553671	     -6.66068191	    -11.40755748	      3.52602336	      1.75752477	     -2.84074158	    -14.34204082	     -3.81427806	     43.02587625	     46.25644346	      0.00000000	      0.00000000	     13.31966286	    -16.96727838	      1.20240340	     56.30789526	     46.23130503	      0.00000000	      0.00000000
     24.02471429	     -5.16421130	     -4.25087231	     -0.43471675	      0.95589458	      0.93280282	      0.42501240	     39.10132668	     -4.55587532	     -8.28976053	     55.95157599	     55.95157599	      0.51176918	    -12.08226341	     -0.93490036	     10.93269645	     -3.97769593	    -10.47047258	     16.26102842	     16.26102842	     12.81221072	     -7.29735947	     -7.37421617	    -11.31241168	      3.38363913	      1.30256081	     -2.56024669	    -13.79727913	     -4.12453721	     38.04389646	     46.43986421	      0.00000000	      0.00000000	     13.09461612	    -17.99705331	      1.10908137	     60.49476601	     46.32046046	      0.00000000	      0.00000000
     24.03692857	     -5.00478717	     -4.21228454	     -0.60274098	      0.95677570	      0.93257603	      0.42465613	     38.96501471	     -4.47886141	     -8.80010311	     52.35500593	     52.35500593	      0.53101173	    -11.37376553	     -0.73552520	      9.88816877	     -3.87345910	    -10.72490414	     15.77627592	     15.77627592	     13.12612708	     -7.10629948	     -7.60390170	    -11.38482987	      3.47983152	      1.49604206	     -3.62165215	    -13.85364442	     -4.14984129	     36.16355288	     46.49714454	      0.00000000	      0.00000000	     13.93632885	    -18.18165726	      0.65426918	     62.56522405	     46.40392588	      0.00000000	      0.00000000
     24.04914286	     -5.03024814	     -4.07910117	     -0.72260081	      0.95756810	      0.93196812	      0.42437631	     38.89699107	     -4.45976489	     -9.29638542	     48.50457947	     48.50457947	      0.38348447	    -10.58764144	     -0.38382359	      9.08585590	     -3.68642676	    -10.97357474	     15.32473446	     15.32473446	     13.34896983	     -6.74083709	     -7.87135634	    -11.33000030	      3.47235269	      1.49139465	     -4.79037938	    -13.81809311	     -4.19322222	     34.57956368	     46.54689257	      0.00000000	      0.00000000	     14.69388289	    -18.57451712	      0.31711679	     64.56125339	     46.47340417	      0.00000000	      0.00000000
     24.06135714	     -5.01349593	     -3.83415509	     -0.83134829	      0.95874255	      0.93106970	      0.42426744	     38.60775462	     -4.47869909	     -9.76922635	     44.45074916	     44.45074916	      0.24675121	     -9.87801394	     -0.67829168	      8.19340688	     -3.42978925	    -11.51300139	     14.84885996	     14.84885996	     13.55152761	     -5.96056052	     -8.77224779	    -11.24334732	      3.18897423	      0.67270201	     -4.59633643	    -13.45728161	     -4.77265821	     30.96767381	     46.69905279	      0.00000000	      0.00000000	     14.00088744	    -19.79681419	     -0.34005883	     69.31047009	     46.63385153	      0.00000000	      0.00000000
     24.07357143	     -5.04594035	     -3.60646574	     -0.89081423	      0.96000009	      0.93002517	      0.42414593	     38.20307569	     -4.47889144	    -10.42654018	     40.21145299	     40.21145299	      0.25023907	     -8.96043309	     -0.05352461	      7.40285126	     -3.13607400	    -11.68212813	     14.46147667	     14.46147667	     13.89047112	     -5.69110867	     -8.94088221	    -11.02788238	      2.99922400	      0.63417933	     -5.93476151	    -13.55140493	     -4.79945017	     30.15186111	     46.71923448	      0.00000000	      0.00000000	     14.97553397	    -20.03916666	     -0.74830008	     70.55439461	     46.69551706	      0.00000000	      0.00000000
     24.08578571	     -4.83701178	     -3.30066990	     -0.93937933	      0.96177154	      0.92915212	      0.42403916	     37.37695491	     -4.54672053	    -11.14976845	     35.90449358	     35.90449358	      0.34688709	     -7.55156788	      0.61851254	      6.17686605	     -2.75912287	    -12.10581963	     13.81511119	     13.81511119	     14.22910089	     -4.90577126	     -9.26741101	    -11.13777776	      2.75005199	      0.91948041	     -7.35195554	    -13.66215219	     -4.91890661	     29.12150013	     46.75063292	      0.00000000	      0.00000000	     15.76941312	    -20.12882661	     -1.08470050	     73.06733969	     46.77777982	      0.00000000	      0.00000000
     24.09800000	     -4.70034590	     -2.92565149	     -0.96420964	      0.96377648	      0.92793273	      0.42409952	     36.53967619	     -4.61827221	    -11.90401287	     31.65158936	     31.65158936	      0.45887008	     -6.08684044	      1.58429479	      5.06984267	     -2.32934239	    -12.51263821	     13.27889135	     13.27889135	     14.60325220	     -4.08448714	     -9.64755685	    -11.08260074	      2.34339058	      0.84327647	     -8.64396238	    -13.72682212	     -5.10128868	     28.42719366	     46.77345024	      0.00000000	      0.00000000	     16.30599717	    -20.53713572	     -1.34871383	     75.50030656	     46.85348570	      0.00000000	      0.00000000
     24.11021429	     -4.55986178	     -2.43603955	     -0.94354274	      0.96609744	      0.92642586	      0.42419182	     35.74053379	     -4.82767268	    -12.68834715	     27.80775256	     27.80775256	      1.04772222	     -4.27624876	      3.67865037	      3.96114989	     -1.81098236	    -13.13233146	     12.78930845	     12.78930845	     15.05260697	     -2.86868290	    -10.14811629	    -11.04289054	      1.82067497	      0.29487325	     -9.68508809	    -13.74436520	     -5.58812732	     28.11261587	     46.78722973	      0.00000000	      0.00000000	     16.01049902	    -21.41372119	     -1.85481495	     79.20230348	     46.99197441	      0.00000000	      0.00000000
     24.12242857	     -4.37989696	     -1.89515968	     -0.89432743	      0.96872111	      0.92484457	      0.42432092	     34.87337609	     -5.07718064	    -13.49821950	     24.27139120	     24.27139120	      1.62072246	     -2.42624376	      5.78725788	      2.74579618	     -1.18458342	    -13.50867121	     12.19454482	     12.19454482	     15.50235085	     -1.96902107	    -10.27802302	    -10.99333657	      1.25031146	      0.15981788	    -11.04678053	    -13.80907381	     -5.73431369	     27.96084070	     46.77183554	      0.00000000	      0.00000000	     16.50785286	    -21.69767901	     -2.27434986	     81.41110573	     47.09467037	      0.00000000	      0.00000000
     24.13464286	     -4.15473250	     -1.43888712	     -0.82950620	      0.97159281	      0.92322034	      0.42467495	     33.99776802	     -5.24374090	    -14.33176488	     21.25912900	     21.25912900	      2.63171355	     -0.58135328	      9.55602849	      1.56186477	     -0.69520100	    -13.81694653	     11.81482286	     11.81482286	     16.14949480	     -1.05098096	    -10.25284684	    -10.96155224	      0.72076769	     -0.17335690	    -12.50438094	    -13.97551236	     -5.79533971	     28.69659580	     46.69054360	      0.00000000	      0.00000000	     16.65430064	    -22.22320143	     -2.65265805	     83.89163125	     47.23078517	      0.00000000	      0.00000000
     24.14685714	     -4.09869833	     -0.90394768	     -0.74495193	      0.97455318	      0.92118266	      0.42514560	     33.29502606	     -5.41077003	    -14.80824336	     18.54651148	     18.54651148	      2.62321437	      0.49619783	     10.44292914	      0.58995094	     -0.10800959	    -13.90449055	     11.45941512	     11.45941512	     16.60805669	     -0.59937820	    -10.37492435	    -10.66599018	      0.12224320	     -0.23146415	    -13.69397248	    -13.95731492	     -5.74981549	     28.43849946	     46.68262939	      0.00000000	      0.00000000	     17.43570545	    -22.37672963	     -2.86599323	     84.95039715	     47.27576221	      0.00000000	      0.00000000
     24.15907143	     -3.80646366	     -0.50480722	     -0.60787814	      0.97797851	      0.91949454	      0.42567460	     32.35007929	     -5.56399554	    -15.58060351	     16.45351679	     16.45351679	      2.78640179	      1.84798814	     11.46562158	     -0.77172827	      0.33761855	    -13.98676828	     10.92247520	     10.92247520	     17.12215536	      0.14448385	    -10.35377921	    -10.65569554	     -0.34590873	     -0.20146186	    -15.06389375	    -14.09971833	     -5.72274518	     28.51016123	     46.65786289	      0.00000000	      0.00000000	     17.95080806	    -22.39818813	     -2.90873550	     86.59180669	     47.32245566	      0.00000000	      0.00000000
     24.17128571	     -3.57222275	     -0.08631648	     -0.45762417	      0.98143922	      0.91765719	      0.42625470	     31.73157070	     -5.86065516	    -16.29314505	     15.34133359	     15.34133359	      3.15588362	      3.12173554	     12.67924195	     -2.01128952	      0.76963072	    -14.13664518	     10.51735807	     10.51735807	     17.81969590	      1.02950361	     -9.95971987	    -10.62315805	     -0.79787951	     -0.32779019	    -16.55129524	    -14.26372017	     -5.61213687	     29.61443832	     46.57266405	      0.00000000	      0.00000000	     18.11087382	    -22.71981951	     -2.93957416	     88.72767923	     47.38896186	      0.00000000	      0.00000000
